<svg xmlns="http://www.w3.org/2000/svg" width="98" height="53" fill="none"><path fill="#202B38" d="M56.265 37H52.31V13.55h10.57c4.76 0 8.33 2.45 8.33 7.28 0 3.92-2.695 6.23-6.37 6.65 1.4.42 2.345 1.295 3.185 2.765L72.015 37h-4.55l-4.06-6.965c-.875-1.575-2.065-2.135-4.27-2.135h-2.87V37zm6.23-19.95h-6.23v7.63h6.23c2.485 0 4.62-.91 4.62-3.745 0-2.975-2.135-3.885-4.62-3.885zm14.999.49h-3.92v-3.99h3.92v3.99zm0 19.46h-3.92V19.955h3.92V37zm10.271.35c-4.9 0-8.26-3.57-8.26-8.855 0-5.32 3.36-8.89 8.26-8.89 4.97 0 8.33 3.57 8.33 8.89 0 5.285-3.36 8.855-8.33 8.855zm.035-3.255c2.555 0 4.305-1.68 4.305-5.6 0-3.955-1.75-5.635-4.305-5.635-2.52 0-4.27 1.68-4.27 5.635 0 3.92 1.75 5.6 4.27 5.6z"/><g fill="#1A5EFF" fill-rule="evenodd" clip-path="url(#a)" clip-rule="evenodd"><path d="M25.556 17.685A10 10 0 0 0 20 16V6A20 20 0 1 1 0 26h10a10 10 0 1 0 15.556-8.315z"/><path d="M10 6A10 10 0 0 1 0 16v10A20 20 0 0 0 20 6H10z"/></g><defs><clipPath id="a"><path fill="#fff" d="M0 6h40v40H0z"/></clipPath></defs></svg>